<svg width="16" height="16" viewBox="0 0 16 16" fill="none" xmlns="http://www.w3.org/2000/svg">
<path fill-rule="evenodd" clip-rule="evenodd" d="M3 1.5H7V0H3C1.34315 0 0 1.34315 0 3V13C0 14.6569 1.34315 16 3 16H13C14.6569 16 16 14.6569 16 13V9H14.5V13C14.5 13.8284 13.8284 14.5 13 14.5H3C2.17157 14.5 1.5 13.8284 1.5 13V3C1.5 2.17157 2.17157 1.5 3 1.5ZM11 1.5L13.4394 1.5L4.96967 9.96967L6.03032 11.0303L14.5 2.56072V5.00001H16V0.750005C16 0.335792 15.6642 5.61649e-06 15.25 4.97107e-06L11 0L11 1.5Z" fill="#1D5DEB"/>
</svg>
