<svg width="40" height="40" viewBox="0 0 40 40" fill="none" xmlns="http://www.w3.org/2000/svg">
<path d="M0 19.2C0 12.4794 0 9.11905 1.30792 6.55211C2.4584 4.29417 4.29417 2.4584 6.55211 1.30792C9.11905 0 12.4794 0 19.2 0H20.8C27.5206 0 30.8809 0 33.4479 1.30792C35.7058 2.4584 37.5416 4.29417 38.6921 6.55211C40 9.11905 40 12.4794 40 19.2V20.8C40 27.5206 40 30.8809 38.6921 33.4479C37.5416 35.7058 35.7058 37.5416 33.4479 38.6921C30.8809 40 27.5206 40 20.8 40H19.2C12.4794 40 9.11905 40 6.55211 38.6921C4.29417 37.5416 2.4584 35.7058 1.30792 33.4479C0 30.8809 0 27.5206 0 20.8V19.2Z" fill="#FF7700"/>
<path d="M20 20C21.3833 20 22.6333 19.4333 23.5333 18.5333C24.4333 17.6333 25 16.3833 25 15C25 13.6167 24.4333 12.3667 23.5333 11.4667C22.6333 10.5667 21.3833 10 20 10C18.6167 10 17.3667 10.5667 16.4667 11.4667C15.5667 12.3667 15 13.6167 15 15C15 16.3833 15.5667 17.6333 16.4667 18.5333C17.3667 19.4333 18.6333 20 20 20ZM18.4 13.3833C18.8167 12.9667 19.3833 12.7167 20 12.7167C20.6333 12.7167 21.2 12.9667 21.6 13.3833C22.0167 13.8 22.2667 14.3667 22.2667 14.9833C22.2667 15.6167 22.0167 16.1833 21.6 16.5833C21.1833 17 20.6167 17.25 20 17.25C19.3667 17.25 18.8 17 18.4 16.5833C17.9833 16.1667 17.7333 15.6 17.7333 14.9833C17.7333 14.3667 18 13.8 18.4 13.3833Z" fill="white"/>
<path d="M26.9474 22.0447L25.433 20.0964C25.347 19.9828 25.1749 19.9666 25.0716 20.064C23.6433 21.2167 21.8879 21.9635 19.9949 21.9635C18.1019 21.9635 16.3466 21.2167 14.9183 20.064C14.815 19.9828 14.6429 19.999 14.5569 20.0964L13.0425 22.0447C12.9736 22.1421 12.9908 22.272 13.0769 22.3531C14.3504 23.3273 15.8303 23.9929 17.3792 24.3339L14.1783 29.6591C14.0922 29.8052 14.2127 30 14.3848 30H17.5168C17.6201 30 17.7061 29.9513 17.7406 29.8539L19.9777 25.1456L22.2149 29.8539C22.2493 29.9351 22.3354 30 22.4386 30H25.5707C25.76 30 25.8632 29.8214 25.7772 29.6591L22.5763 24.3339C24.1251 23.9929 25.6051 23.3435 26.8786 22.3531C27.0162 22.272 27.0335 22.1421 26.9474 22.0447Z" fill="white"/>
</svg>
