<svg width="40" height="40" fill="none" xmlns="http://www.w3.org/2000/svg"><mask id="a" style="mask-type:luminance" maskUnits="userSpaceOnUse" x="0" y="0" width="40" height="40"><path d="M28 0H12C5.373 0 0 5.373 0 12v16c0 6.627 5.373 12 12 12h16c6.627 0 12-5.373 12-12V12c0-6.627-5.373-12-12-12Z" fill="#fff"/></mask><g mask="url(#a)"><path d="M0 19.2C0 12.48 0 9.12 1.308 6.552a12 12 0 0 1 5.244-5.244C9.12 0 12.48 0 19.2 0h1.6c6.72 0 10.08 0 12.648 1.308a12 12 0 0 1 5.244 5.244C40 9.12 40 12.48 40 19.2v1.6c0 6.72 0 10.08-1.308 12.648a12 12 0 0 1-5.244 5.244C30.88 40 27.52 40 20.8 40h-1.6c-6.72 0-10.08 0-12.648-1.308a12 12 0 0 1-5.244-5.244C0 30.88 0 27.52 0 20.8v-1.6Z" fill="#100943"/><path fill-rule="evenodd" clip-rule="evenodd" d="M20.027 0c.166 3.122 1.018 9.237 4.977 13.5 5.588 6.018 13.023 6.493 15 6.507V19.2c0-6.72 0-10.08-1.308-12.648a12 12 0 0 0-5.244-5.244C30.885 0 27.525 0 20.804 0h-.777Z" fill="#ED143B"/><path d="M23.884 19.27h-9.75v-3.742h9.75c.57 0 .965.097 1.164.265.199.168.322.48.322.935v1.343c0 .48-.123.792-.322.96-.198.168-.595.24-1.164.24v-.002ZM24.553 12H10V28h4.135v-5.205h7.62L25.37 28H30l-3.986-5.23c1.47-.21 2.13-.647 2.674-1.367s.817-1.87.817-3.406v-1.2c0-.91-.1-1.63-.273-2.182a3.615 3.615 0 0 0-.892-1.463 4.057 4.057 0 0 0-1.534-.888c-.595-.168-1.338-.264-2.253-.264v.001Z" fill="#fff"/></g></svg>